<?xml version="1.0" encoding="UTF-8"?>
<svg width="108px" height="24px" viewBox="0 0 108 24" version="1.1" xmlns="http://www.w3.org/2000/svg" xmlns:xlink="http://www.w3.org/1999/xlink">
    <!-- Generator: Sketch 52.5 (67469) - http://www.bohemiancoding.com/sketch -->
    <title>gravity-logo</title>
    <desc>Created with Sketch.</desc>
    <defs>
        <linearGradient x1="75.3955078%" y1="131.16862%" x2="25.2392578%" y2="-83.0891927%" id="linearGradient-1">
            <stop stop-color="#FFFFFF" offset="0%"></stop>
            <stop stop-color="#E8EAF6" offset="38.3991015%"></stop>
            <stop stop-color="#E8EAF6" stop-opacity="0.24" offset="100%"></stop>
        </linearGradient>
        <path d="M43.736,8.684 L41.342,8.684 C41.3179999,7.98799652 41.0600025,7.40300237 40.568,6.929 C40.0759975,6.45499763 39.3980043,6.218 38.534,6.218 C37.537995,6.218 36.7850026,6.52399694 36.275,7.136 C35.7649975,7.74800306 35.51,8.5939946 35.51,9.674 L35.51,11.654 C35.51,12.7700056 35.7559975,13.6459968 36.248,14.282 C36.7400025,14.9180032 37.5079948,15.236 38.552,15.236 C39.4400044,15.236 40.1359975,14.9960024 40.64,14.516 C41.1440025,14.0359976 41.396,13.4360036 41.396,12.716 L41.396,12.536 L38.57,12.536 L38.57,10.484 L43.862,10.484 L43.862,12.122 C43.862,13.6460076 43.3730049,14.8819953 42.395,15.83 C41.4169951,16.7780047 40.124008,17.252 38.516,17.252 C36.7279911,17.252 35.3630047,16.7240053 34.421,15.668 C33.4789953,14.6119947 33.008,13.2560083 33.008,11.6 L33.008,9.764 C33.008,8.04799142 33.4909952,6.68300507 34.457,5.669 C35.4230048,4.65499493 36.7579915,4.148 38.462,4.148 C40.058008,4.148 41.3269953,4.57099577 42.269,5.417 C43.2110047,6.26300423 43.6999998,7.35199334 43.736,8.684 Z M53.726,17 L51.422,12.968 L48.776,12.968 L48.776,17 L46.256,17 L46.256,4.4 L51.944,4.4 C53.3840072,4.4 54.502996,4.79599604 55.301,5.588 C56.099004,6.38000396 56.498,7.41199364 56.498,8.684 C56.498,9.57200444 56.2790022,10.3579966 55.841,11.042 C55.4029978,11.7260034 54.7940039,12.2359983 54.014,12.572 L56.642,17 L53.726,17 Z M48.776,10.934 L51.638,10.934 C52.3940038,10.934 52.972998,10.7270021 53.375,10.313 C53.777002,9.89899793 53.978,9.35000342 53.978,8.666 C53.978,7.98199658 53.777002,7.44200198 53.375,7.046 C52.972998,6.64999802 52.3940038,6.452 51.638,6.452 L48.776,6.452 L48.776,10.934 Z M65.102,4.4 L69.62,17 L67.118,17 L66.272,14.354 L61.376,14.354 L60.53,17 L58.028,17 L62.546,4.4 L65.102,4.4 Z M63.824,6.668 L62.006,12.356 L65.624,12.356 L63.824,6.668 Z M80.006,4.4 L75.83,17 L72.986,17 L68.81,4.4 L71.384,4.4 L74.408,14.246 L77.432,4.4 L80.006,4.4 Z M81.878,17 L81.878,4.4 L84.398,4.4 L84.398,17 L81.878,17 Z M89.906,17 L89.906,6.488 L86.342,6.488 L86.342,4.4 L95.99,4.4 L95.99,6.488 L92.426,6.488 L92.426,17 L89.906,17 Z M103.694,12.464 L103.694,17 L101.174,17 L101.174,12.464 L96.854,4.4 L99.59,4.4 L102.434,10.016 L105.278,4.4 L108.014,4.4 L103.694,12.464 Z" id="path-2"></path>
    </defs>
    <g id="Symbols" stroke="none" stroke-width="1" fill="none" fill-rule="evenodd">
        <g id="gravity/navigation/primary" transform="translate(-32.000000, -24.000000)">
            <g id="Group">
                <g transform="translate(32.000000, 24.000000)">
                    <g id="gravity-logo">
                        <g id="Product">
                            <use fill-opacity="0.56" fill="#FFFFFF" xlink:href="#path-2"></use>
                            <use fill="url(#linearGradient-1)" xlink:href="#path-2"></use>
                        </g>
                        <g id="logo/gravity/white" fill="#FFFFFF" fill-rule="nonzero">
                            <path d="M23.8124031,15.3887915 L21.3881255,13.3971554 C21.4747325,12.9518598 21.4994003,12.4714318 21.4994003,12.0027714 C21.4994003,11.5342815 21.4747325,11.0538534 21.3881255,10.6085578 L23.8124031,8.61675114 C23.9856172,8.49958604 24.0477366,8.27719407 23.9609495,8.08959347 C23.4659748,6.64865036 22.6126881,5.27780165 21.5611596,4.14145369 C21.4129733,3.97738844 21.2026675,3.91872061 21.0046056,4.00092378 L17.949411,5.00833897 C17.1949751,4.42251347 16.3413283,3.95402362 15.4261024,3.61412547 L14.8202132,0.615074132 C14.7831214,0.427644083 14.6099074,0.251811162 14.3994215,0.228446361 C12.8161868,-0.0761487869 11.1836167,-0.0761487869 9.60038188,0.228446361 C9.39007616,0.251811162 9.21686205,0.427644083 9.17977045,0.615074132 L8.57370106,3.614296 C7.65847506,3.95419417 6.78016059,4.42268403 6.05039253,5.00850952 L2.9951978,4.00109432 C2.79731598,3.91906169 2.58701025,3.97755897 2.43846383,4.14162422 C1.38711529,5.27797219 0.533648587,6.64882091 0.0388539666,8.08976403 C-0.0477530976,8.27736461 0.0141862581,8.49975659 0.18722033,8.61692169 L2.61149791,10.6087284 C2.52507089,11.0538534 2.50022314,11.534452 2.50022314,12.0029418 C2.50022314,12.4716023 2.52489084,12.9518598 2.61149791,13.3973259 L0.187400387,15.3887915 C0.0143663145,15.5059567 -0.0475730412,15.7285192 0.0390340229,15.9159492 C0.533828643,17.3570629 1.38729534,18.7279116 2.43864389,19.8642595 C2.5871903,20.0283249 2.79749603,20.086822 2.99537787,20.0047895 L6.05057259,18.9972037 C6.78034064,19.5831997 7.65865511,20.0516896 8.57388111,20.3914172 L9.1799505,23.3908097 C9.2170421,23.5782397 9.39007616,23.7540727 9.60056193,23.7774375 C10.3920893,23.9179673 11.1836167,24 12.0001718,24 C12.8163668,24 13.6082544,23.9181378 14.3996016,23.7774375 C14.6100873,23.7540727 14.7833015,23.5782397 14.8203931,23.3908097 L15.4264625,20.3914172 C16.3416885,20.0516896 17.1951553,19.5831997 17.9497711,18.9972037 L21.0049657,20.0047895 C21.2030276,20.0866516 21.4133334,20.0283249 21.5615197,19.8642595 C22.6130483,18.7279116 23.4663349,17.3570629 23.9613096,15.9159492 C24.0477366,15.7285192 23.9856172,15.5059567 23.8124031,15.3887915 L23.8124031,15.3887915 L23.8124031,15.3887915 L23.8124031,15.3887915 Z M12.0140828,19.7399185 C7.49490949,19.7399185 3.83144606,16.2746127 3.83144606,12 C3.83144606,7.72538734 7.49490949,4.26008146 12.0140828,4.26008146 C16.5332562,4.26008146 20.1967196,7.72538734 20.1967196,12 C20.1967196,16.2746127 16.5332562,19.7399185 12.0140828,19.7399185 Z M16.377417,11.8773446 C16.4513633,11.8773446 16.5111758,11.9322551 16.5112782,12.000047 C16.5112782,14.2635997 14.5053059,16.1052632 12.0396785,16.1052632 C9.5737439,16.1052632 7.56766917,14.2636937 7.56766917,12.000047 C7.56766917,9.7364003 9.5737439,7.89473684 12.0396785,7.89473684 C12.9498733,7.89473684 13.8262701,8.14484276 14.5739264,8.61788146 C14.6345583,8.65643162 14.6499211,8.73268572 14.6081343,8.78853645 L13.1428301,10.7440639 C13.1022723,10.7983162 13.0222834,10.8134542 12.9614466,10.778383 C12.7065266,10.6311402 12.4128922,10.5533817 12.1123958,10.5533817 C11.2297516,10.5533817 10.5115918,11.2126835 10.5115918,12.0231771 C10.5115918,12.8335767 11.2296492,13.4928785 12.1123958,13.4928785 C12.5534106,13.4928785 12.9746587,13.3231638 13.2752575,13.0319691 C13.276589,13.0307468 13.2779204,13.0295243 13.2792518,13.028114 C13.280276,13.0271738 13.2814026,13.0262335 13.2824268,13.0251993 L13.282222,13.0248232 C13.3009646,13.00536 13.3126403,12.9801614 13.3126403,12.952142 C13.3126403,12.9243107 13.3009646,12.8989239 13.282222,12.8794608 L13.2825293,12.8790847 L12.6051321,12.0751728 C12.5738943,12.038127 12.5682614,11.9879178 12.5906911,11.9459828 C12.6132232,11.9039537 12.6598236,11.8773446 12.7108282,11.8773446 L16.377417,11.8773446 Z M12.0140828,18.7633927 C15.9629028,18.7633927 19.1641042,15.735345 19.1641042,12 C19.1641042,8.26465503 15.9629028,5.23660728 12.0140828,5.23660728 C8.06526289,5.23660728 4.86406144,8.26465503 4.86406144,12 C4.86406144,15.735345 8.06526289,18.7633927 12.0140828,18.7633927 Z"></path>
                        </g>
                    </g>
                </g>
            </g>
        </g>
    </g>
</svg>